<?xml version="1.0" encoding="UTF-8"?>
<svg id="Layer_2" data-name="Layer 2" xmlns="http://www.w3.org/2000/svg" viewBox="0 0 261.34 442.51">
  <defs>
    <style>
      .cls-1 {
        fill: #fff;
      }
    </style>
  </defs>
  <g id="Layer_1-2" data-name="Layer 1">
    <path class="cls-1" d="M.05,311.26c-.23-7.1.29-13.96,1.45-20.75,1.15-6.77,2.74-13.46,4.87-20.01,3.07-9.45,7.32-18.37,11.72-27.23,4.71-9.48,9.33-19,13.98-28.51,8.22-16.79,16.45-33.58,24.66-50.38,6.76-13.83,13.48-27.69,20.22-41.53,4.88-10.01,9.76-20.02,14.65-30.02,9.6-19.63,19.21-39.26,28.82-58.89,4.41-9.01,8.91-17.99,13.21-27.05C135.83,2.24,139.38.07,144.39,0c1.51-.02,3.03,0,4.54,0,18.99,0,37.98,0,56.98,0,1.1,0,2.2,0,3.3.01,6.37.1,10.74,4.7,10.19,11.81-.16,2.09-.91,4.01-1.82,5.88-2.42,4.93-4.84,9.87-7.25,14.81-5.38,10.99-10.75,21.98-16.13,32.97-7.18,14.7-14.35,29.4-21.55,44.09-7.38,15.06-14.78,30.11-22.18,45.16-4,8.14-8.02,16.28-12.02,24.42-.47.95.05,2.07,1.07,2.24,1.08.18,2.18.27,3.28.37,6.45.59,12.83,1.62,19.13,3.11,11.45,2.71,22.3,6.98,32.52,12.8,14.49,8.26,27.11,18.8,37.73,31.68,7.57,9.18,13.57,19.3,18.28,30.26,4.71,10.96,7.69,22.37,9.51,34.08,1.65,10.65,1.74,21.4.63,32.12-1.45,14.07-5.11,27.58-11.04,40.42-7.84,16.96-18.8,31.63-32.83,44-7.88,6.96-16.47,12.87-25.79,17.71-8.58,4.46-17.58,7.81-26.93,10.26-13.7,3.58-27.59,4.98-41.72,4-9.08-.63-18.01-2.13-26.8-4.55-24.01-6.62-44.12-19.48-60.95-37.68-7.8-8.44-14.37-17.72-19.68-27.9-1.27-2.44-2.69-4.8-3.93-7.25-.87-1.71-1.64-3.48-2.3-5.28-2.36-6.46-4.37-13.05-5.76-19.78-1.96-9.45-3.09-19.01-2.8-28.5ZM209.28,310.25c-.16-3.09-.29-5.97-.46-8.85-.03-.53-.18-1.09-.4-1.58-.25-.53-.79-.82-1.36-.66-.65.19-1.28.49-1.87.82-2.88,1.6-5.73,3.27-8.63,4.83-9.71,5.21-19.84,9.47-30.35,12.77-7.49,2.35-15.09,4.28-22.86,5.38-5.57.79-11.14,1.73-16.8,1.8-2.47.03-4.95.21-7.42.2-5.36,0-10.72-.16-16.05-.82-2.72-.34-5.48-.46-8.22-.61-1.48-.09-2.3.72-2.25,2.27.05,1.51.29,3.01.4,4.51.16,2.2,1.19,3.4,3.46,3.92,3.48.8,6.89,1.89,10.3,2.98,4.61,1.47,8.77,3.94,12.99,6.24,7.24,3.94,14.35,8.13,21.59,12.09,7.96,4.36,16.14,8.28,24.7,11.35,4.03,1.44,8.2,2.3,12.38,3.13,1.15.23,2.19-.07,3.12-.74.78-.56,1.58-1.12,2.26-1.79,2.24-2.23,4.53-4.42,6.6-6.8,5.54-6.37,9.96-13.45,13.11-21.32,2.15-5.38,3.81-10.87,4.74-16.61.68-4.22,1.02-8.46,1.04-12.52ZM117.25,315.43c3.95-.12,9.31-.26,14.67-.43,6.2-.21,12.33-1.14,18.41-2.27,7.17-1.34,14.25-3.01,21.27-5.05,10.74-3.13,21.08-7.17,30.91-12.49,1.09-.59,2.15-1.23,3.17-1.92,1.28-.87,1.51-1.63,1.05-3.19-1.78-5.94-3.93-11.74-6.95-17.17-3.63-6.53-8.1-12.43-13.39-17.73-1.34-1.35-2.69-1.77-4.43-.96-3.24,1.52-6.55,2.88-9.71,4.54-5.97,3.14-11.61,6.84-17.05,10.84-11.54,8.48-23.56,16.23-35.64,23.88-5.99,3.79-12.46,6.43-19.59,7.2-1.09.12-2.18.3-3.27.43-1.5.18-2.5.94-3.11,2.35-1.25,2.87-1.42,5.86-1.1,8.9.1.98.84,1.69,1.92,1.88.94.17,1.91.29,2.86.33,6.18.29,12.37.54,19.97.87ZM132.79,233.03c-4.33-.03-8.3.23-12.27.79-2.21.31-3.92,1.17-4.88,3.28-.17.37-.43.7-.64,1.06-8.1,13.7-14.06,28.27-17.61,43.8-.43,1.87-.61,3.8-.75,5.72-.12,1.64,1.18,2.85,2.83,2.88.41,0,.83-.01,1.23-.1,2.14-.5,4.29-.95,6.41-1.55,4.44-1.26,8.21-3.83,11.92-6.44,11.25-7.91,22.56-15.72,34.39-22.76,6.98-4.15,13.98-8.23,21.72-10.85.38-.13.81-.32,1.03-.62.21-.27.35-.83.21-1.08-.25-.45-.69-.85-1.13-1.14-13.01-8.45-27.19-13.07-42.45-12.96ZM130.86,387.32c10.08-.06,18.75-1.44,27.07-4.52,3.86-1.42,7.57-3.25,11.31-4.97.37-.17.63-.87.69-1.35.03-.3-.35-.79-.67-.95-.73-.37-1.53-.61-2.3-.88-6.23-2.16-12.57-3.97-18.67-6.51-8.14-3.39-16.08-7.1-23.36-12.13-2.6-1.8-5.26-3.51-7.94-5.18-5.17-3.23-10.73-5.53-16.73-6.73-.93-.19-1.9-.24-2.85-.29-.63-.03-1.34.81-1.23,1.38.1.54.25,1.07.4,1.59,1.84,6.34,4.05,12.53,6.9,18.5,2.92,6.11,6.55,11.73,10.69,17.07,2.1,2.71,4.69,4.13,8.03,4.37,3.29.23,6.58.46,8.66.6ZM107.02,238.78c.16-.73-.63-1.42-1.06-1.25-1.53.58-3.07,1.18-4.57,1.83-9.7,4.19-18.25,10.05-25.42,17.82-2.6,2.82-4.89,5.91-7.28,8.92-1.11,1.4-1.28,2.84-.47,4.58,2.59,5.57,6.08,10.42,10.87,14.27,1.49,1.19,3.12,2.29,4.84,3.09,2.74,1.28,4.02,1.69,4.74-2.33,1.02-5.67,2.65-11.21,4.53-16.64,3.56-10.24,7.91-20.15,13.51-29.47.2-.34.29-.75.32-.82ZM86.36,330.95c-.32-2.3-.64-4.61-.95-6.91-.17-1.22-.89-1.98-2.01-2.35-1.17-.39-2.35-.75-3.53-1.09-.92-.27-1.88-.41-2.77-.75-6.55-2.45-13.08-4.93-19.62-7.41-1.61-.61-2.43-.1-2.41,1.53,0,.55.07,1.09.1,1.64.28,4.67,1.11,9.27,2.23,13.79,1.23,4.94,3.27,9.59,5.71,14.06.45.82,1.11,1.55,1.78,2.22.21.21.86.26,1.12.09.68-.43,1.33-.96,1.85-1.57,4.12-4.71,9.28-7.64,15.36-8.99,2.47-.55,3.64-1.15,3.15-4.26ZM84.56,342.63c-4.09.06-7.86,1.3-11.37,3.28-1.29.73-2.4,1.84-3.43,2.92-1.29,1.36-1.31,2.58-.32,4.1.22.35.5.66.73,1,5.58,8.16,12.58,14.91,20.63,20.6,4.51,3.18,9.28,5.91,14.42,7.97.74.3,1.56.41,2.36.53.12.02.47-.46.42-.58-.24-.61-.47-1.29-.92-1.75-4.43-4.6-7.88-9.88-10.86-15.5-3.04-5.73-5.26-11.79-7.12-18-.28-.92-.51-1.86-.81-2.77-.39-1.18-1.26-1.75-2.49-1.79-.41-.01-.83,0-1.24,0ZM85.85,303.03s-.09-.01-.13-.02c.04-.41.07-.82.13-1.23.21-1.56-.45-2.64-1.8-3.38-.84-.47-1.64-1-2.47-1.48-3.37-1.93-6.31-4.39-9.02-7.14-2.71-2.76-5.03-5.82-7.03-9.12-.43-.7-.8-1.44-1.25-2.13-.44-.68-1.68-.56-2.11.17-.07.12-.19.21-.23.34-1.22,3.35-2.42,6.71-3.66,10.05-1.4,3.77-1.56,7.8-2.55,11.65-.25.98.26,1.81,1.27,2.34.85.45,1.73.85,2.61,1.23,7.1,3.01,14.46,5.23,21.88,7.24.27.07.53.14.8.19,1.52.28,2.47-.29,2.69-1.76.34-2.31.59-4.63.88-6.94Z"/>
  </g>
</svg>